<?xml version="1.0" encoding="iso-8859-1"?>
<!-- Generator: Adobe Illustrator 22.1.0, SVG Export Plug-In . SVG Version: 6.00 Build 0)  -->
<svg version="1.1" id="&#x30EC;&#x30A4;&#x30E4;&#x30FC;_1"
	 xmlns="http://www.w3.org/2000/svg" xmlns:xlink="http://www.w3.org/1999/xlink" x="0px" y="0px" viewBox="0 0 291 76.183"
	 style="enable-background:new 0 0 291 76.183;" xml:space="preserve">
<g>
	<path style="fill:#1F1E1D;" d="M15.063,2.278c4.217,0,7.75,1.947,9.46,5.955c3.761-3.779,8.548-5.955,14.247-5.955
		c13.677,0,22.681,12.138,22.681,29.43c0,17.406-9.005,29.544-22.681,29.544c-5.129,0-9.574-1.832-13.107-4.924v6.299
		c0,7.901-4.673,11.794-10.6,11.794H12.1c-5.927,0-10.6-3.893-10.6-11.794V14.073c0-7.901,4.673-11.794,10.6-11.794H15.063z
		 M36.491,31.708c0-6.413-2.052-9.504-5.585-9.504c-3.191,0-5.243,3.092-5.243,9.504c0,6.298,2.051,9.39,5.243,9.39
		C34.439,41.098,36.491,38.006,36.491,31.708z"/>
</g>
<path style="fill:#1F1E1D;" d="M65.692,36.187c0-6.376,3.771-9.518,8.553-9.518h2.392c4.783,0,8.553,3.142,8.553,9.518v28.549
	c0,6.375-3.769,9.516-8.553,9.516h-2.392c-4.782,0-8.553-3.142-8.553-9.516V36.187z"/>
<path style="display:none;" d="M95.325,28.054c0-1.19,1.013-2.178,2.28-2.178c1.241,0,2.279,0.988,2.279,2.178
	c0,1.241-1.038,2.229-2.279,2.229C96.338,30.283,95.325,29.295,95.325,28.054z"/>
<path style="fill:#1F1E1D;" d="M115.274,59.099c6.345,0,7.081-6.282,14.715-6.282c4.691,0,6.806,3.418,6.806,6.56
	c0,9.516-10.762,14.876-21.798,14.876c-14.99,0-25.568-9.887-25.568-23.838s10.577-23.745,25.568-23.745
	c11.037,0,21.798,5.359,21.798,14.876c0,3.142-2.115,6.56-6.806,6.56c-7.634,0-8.37-6.282-14.715-6.282
	c-4.415,0-6.53,4.25-6.53,8.592S110.86,59.099,115.274,59.099z"/>
<path style="fill:#1F1E1D;" d="M186.252,58.176c4.23,0,7.266,1.478,7.266,7.392v1.293c0,4.805-1.472,7.392-8.278,7.392h-5.61
	c-5.243,0-9.934-1.2-11.957-5.452c-2.3,2.403-7.266,5.452-14.164,5.452c-6.069,0-13.152-2.679-13.152-11.456
	c0-10.533,9.842-13.214,17.566-15.246c5.058-1.386,9.198-2.494,9.198-5.359c0-1.754-1.197-3.325-4.232-3.325
	c-6.62,0-6.989,7.484-14.898,7.484c-4.322,0-6.714-2.495-6.714-6.284c0-5.635,6.53-13.397,23.084-13.397
	c15.636,0,21.891,5.174,21.891,18.388V58.176z M168.043,50.97c-4.324,3.694-9.842,3.325-9.842,7.114c0,1.571,0.92,2.679,2.574,2.679
	C163.536,60.762,168.043,56.974,168.043,50.97z"/>
<path style="fill:#1F1E1D;" d="M239.719,60.301c1.012,1.94,1.656,3.881,1.656,5.913c0,4.342-2.667,8.038-7.909,8.038h-2.023
	c-5.427,0-8.001-1.756-11.037-8.038l-2.76-5.545l-1.654,2.034v2.032c0,6.375-3.771,9.516-8.554,9.516h-2.39
	c-4.783,0-8.554-3.142-8.554-9.516V17.245c0-6.375,3.771-9.516,8.554-9.516h2.39c4.783,0,8.554,3.142,8.554,9.516v29.012
	l10.944-15.8c1.472-2.125,3.494-3.788,6.438-3.788c3.679,0,6.53,2.495,6.53,6.006c0,1.293-0.367,2.495-1.103,3.603l-6.622,9.609
	L239.719,60.301z"/>
<path style="fill:#1F1E1D;" d="M262.182,50.045c0.092,5.635,2.025,8.962,5.705,8.962c6.251,0,6.989-6.191,14.347-6.191
	c4.691,0,6.805,3.418,6.805,6.56c0,9.516-10.393,14.876-21.428,14.876c-13.981,0-24.741-9.887-24.741-23.838
	s10.668-23.745,24.926-23.745c12.691,0,21.704,7.947,21.704,17.186c0,4.159-1.84,6.191-6.439,6.191H262.182z M271.288,44.408
	c-0.277-3.049-1.748-5.543-4.322-5.543s-4.138,2.494-4.415,5.543H271.288z"/>
<path style="fill:#F3B827;" d="M75.637,22.688c0,0,13.248-4.399,6.904-11.16c-6.343-6.761-5.151-9.066-5.151-9.066
	s-9.834,2.314-10.708,8.279C65.758,17.046,75.52,21.873,75.637,22.688z"/>
</svg>
